<?xml version="1.0" encoding="UTF-8"?>
<svg version="1.1" xmlns="http://www.w3.org/2000/svg" width="115" height="130">
    <path
        d="M0 0 C5.2133421 0.78194862 9.88998105 2.52069966 14.73828125 4.5390625 C15.61266846 4.89734131 16.48705566 5.25562012 17.38793945 5.62475586 C28.91746057 10.45476244 40.21959491 16.56932172 48.73828125 25.9140625 C49.46015625 26.5740625 50.18203125 27.2340625 50.92578125 27.9140625 C54.48511121 27.52463909 57.42709712 25.69568654 60.55078125 24.0390625 C69.29333073 19.66778776 76.47685014 17.64633811 86.23828125 17.4140625 C87.01574707 17.38328613 87.79321289 17.35250977 88.59423828 17.32080078 C92.71002766 17.3199105 94.44403896 17.55048341 97.82421875 20.1015625 C105.5328407 30.41793389 105.08127851 44.63008523 103.92578125 56.9140625 C100.92741136 73.5230103 90.97554229 86.90243426 77.8125 97.08984375 C66.81125664 104.04191499 53.6343793 107.97596136 40.70703125 105.23046875 C23.73799778 100.36197224 10.07092304 90.38918303 1.234375 74.9609375 C-1.65238988 69.42391379 -4.20137073 64.12219402 -5.07421875 57.9140625 C-5.29078125 56.42712891 -5.29078125 56.42712891 -5.51171875 54.91015625 C-6.25945893 48.06366023 -6.02440014 41.73538053 -4.88671875 34.9765625 C-4.77368408 34.27926025 -4.66064941 33.58195801 -4.54418945 32.86352539 C-3.59541076 27.87601852 -1.92356794 24.13174323 0.92578125 19.9140625 C3.92578125 18.7265625 3.92578125 18.7265625 6.92578125 18.9140625 C9.30078125 20.4765625 9.30078125 20.4765625 10.92578125 22.9140625 C11.54007274 26.68756737 10.81575727 29.28155016 9.42578125 32.7265625 C5.879944 42.68867667 6.85091282 55.29382965 10.92578125 64.9140625 C11.18101563 65.58308594 11.43625 66.25210938 11.69921875 66.94140625 C15.72573512 76.26888682 23.86714732 84.4268135 32.92578125 88.9140625 C44.80141914 93.53718187 53.15736739 93.89470207 64.92578125 88.9140625 C77.6344051 82.31760203 85.04123614 73.08445299 89.7421875 59.56640625 C92.29175895 49.74253304 91.07979108 39.68403566 88.92578125 29.9140625 C78.51847256 31.41968838 70.09970996 33.54522922 60.92578125 38.9140625 C61.35890625 40.1309375 61.79203125 41.3478125 62.23828125 42.6015625 C69.27862361 63.82316591 69.27862361 63.82316591 65.09375 73.921875 C62.17303674 78.90369361 57.47958097 82.70396848 52.05078125 84.6640625 C47.52175912 85.46803092 44.10735067 83.80784763 40.19921875 81.61328125 C35.58504209 78.16454096 33.02212367 73.52475608 31.92578125 67.9140625 C30.63323717 56.02689481 35.59747503 46.63855972 41.92578125 36.9140625 C30.51472029 25.56485011 17.43261534 19.34749661 2.51904297 13.83227539 C1.56400879 13.4789917 0.60897461 13.12570801 -0.375 12.76171875 C-1.23262939 12.45242432 -2.09025879 12.14312988 -2.97387695 11.82446289 C-5.07421875 10.9140625 -5.07421875 10.9140625 -7.07421875 8.9140625 C-7.63280308 3.6633698 -7.63280308 3.6633698 -5.80932617 1.21728516 C-3.60872844 -0.43556284 -2.69705488 -0.35952593 0 0 Z M48.92578125 48.9140625 C45.78527016 54.48593701 43.60347949 59.4060462 43.92578125 65.9140625 C44.91774098 68.93387351 44.91774098 68.93387351 46.92578125 70.9140625 C49.01111758 71.79228562 49.01111758 71.79228562 50.92578125 71.9140625 C54.24716728 68.07425907 54.36224519 65.52463085 54.23046875 60.59765625 C53.76158646 56.46788527 52.48263745 52.75060098 50.92578125 48.9140625 C50.26578125 48.9140625 49.60578125 48.9140625 48.92578125 48.9140625 Z "
        fill="#0d9488" transform="translate(10.07421875,21.0859375)" />
    <path
        d="M0 0 C4.50660133 2.51839486 6.87968201 5.44753287 9.0625 10.125 C10.37647299 16.2170566 9.37112994 21.56940825 6.02734375 26.76953125 C2.94513422 30.49268955 -0.23417712 31.99357877 -4.8671875 32.7265625 C-11.58330173 33.0800422 -16.1895855 31.78854231 -21.25 27.3125 C-24.98671762 23.09362527 -25.37002013 17.78198862 -25.25 12.3125 C-23.63439932 6.25399745 -20.3313051 2.75392936 -15.25 -0.6875 C-9.81939165 -2.49770278 -5.15256228 -2.38847747 0 0 Z M-10.5625 11.125 C-11.3978125 11.7128125 -11.3978125 11.7128125 -12.25 12.3125 C-12.41681109 15.22902174 -12.41681109 15.22902174 -12.25 18.3125 C-10.42296773 20.5616908 -10.42296773 20.5616908 -7.75 20.5625 C-5.07703227 20.5616908 -5.07703227 20.5616908 -3.25 18.3125 C-2.66649495 15.85540625 -2.66649495 15.85540625 -3.25 13.3125 C-6.52293087 10.47012553 -6.52293087 10.47012553 -10.5625 11.125 Z "
        fill="#0d9488" transform="translate(67.25,5.6875)" />
    <path
        d="M0 0 C4.48135001 3.05727656 6.63156792 6.97753933 7.7578125 12.19921875 C7.57294847 18.02243573 6.52909532 22.64369364 2.7578125 27.19921875 C-2.16285093 31.11566515 -6.26024794 31.89341656 -12.51953125 31.65234375 C-18.0223176 30.73652852 -21.80469235 28.05405121 -25.1796875 23.69921875 C-26.24699453 21.18790808 -26.85685501 18.89654617 -27.2421875 16.19921875 C-26.2521875 16.19921875 -25.2621875 16.19921875 -24.2421875 16.19921875 C-23.5821875 18.17921875 -22.9221875 20.15921875 -22.2421875 22.19921875 C-21.5821875 22.19921875 -20.9221875 22.19921875 -20.2421875 22.19921875 C-19.5821875 20.21921875 -18.9221875 18.23921875 -18.2421875 16.19921875 C-17.5821875 16.52921875 -16.9221875 16.85921875 -16.2421875 17.19921875 C-15.9121875 14.55921875 -15.5821875 11.91921875 -15.2421875 9.19921875 C-14.2521875 8.86921875 -13.2621875 8.53921875 -12.2421875 8.19921875 C-11.9121875 8.85921875 -11.5821875 9.51921875 -11.2421875 10.19921875 C-12.2321875 10.69421875 -12.2321875 10.69421875 -13.2421875 11.19921875 C-13.28473106 13.19876621 -13.28299533 15.19963511 -13.2421875 17.19921875 C-12.1825998 18.48244422 -12.1825998 18.48244422 -9.7421875 18.32421875 C-7.3017752 18.48244422 -7.3017752 18.48244422 -6.2421875 17.19921875 C-5.90844473 14.78338122 -5.90844473 14.78338122 -6.2421875 12.19921875 C-7.63804535 10.38445872 -7.63804535 10.38445872 -9.2421875 9.19921875 C-7.3046875 8.63671875 -7.3046875 8.63671875 -5.2421875 8.19921875 C-3.58187868 9.85952757 -3.95300499 11.79675472 -3.8671875 14.07421875 C-3.875 16.83203125 -3.875 16.83203125 -4.2421875 19.19921875 C-6.7421875 20.94921875 -6.7421875 20.94921875 -9.2421875 22.19921875 C-9.65965358 25.32557084 -9.65965358 25.32557084 -9.2421875 28.19921875 C-3.69165464 27.45562202 -3.69165464 27.45562202 1.7578125 26.19921875 C1.8815625 25.68359375 2.0053125 25.16796875 2.1328125 24.63671875 C2.7578125 22.19921875 2.7578125 22.19921875 3.8828125 18.94921875 C4.9643154 14.31420634 4.87836969 11.83085514 3.7578125 7.19921875 C1.1878611 4.02059465 -0.36403077 2.49193766 -4.2421875 1.19921875 C-4.2421875 0.53921875 -4.2421875 -0.12078125 -4.2421875 -0.80078125 C-6.16143537 -0.57143716 -8.0776281 -0.31643782 -9.9921875 -0.05078125 C-11.05953125 0.0884375 -12.126875 0.22765625 -13.2265625 0.37109375 C-16.6644195 1.31516847 -17.89534925 2.59866825 -20.2421875 5.19921875 C-20.9021875 5.19921875 -21.5621875 5.19921875 -22.2421875 5.19921875 C-22.2421875 5.85921875 -22.2421875 6.51921875 -22.2421875 7.19921875 C-23.2321875 7.69421875 -23.2321875 7.69421875 -24.2421875 8.19921875 C-24.89773869 10.7265511 -24.89773869 10.7265511 -25.2421875 13.19921875 C-25.5721875 13.19921875 -25.9021875 13.19921875 -26.2421875 13.19921875 C-26.81326115 9.93594075 -26.69367068 7.8879219 -24.859375 5.08984375 C-17.82887043 -3.24936946 -9.77413164 -5.46201474 0 0 Z "
        fill="#0d9488" transform="translate(69.2421875,6.80078125)" />
    <path
        d="M0 0 C1.55792051 3.03086354 2.9079406 6.11852806 4.25 9.25 C9.95252802 21.75233548 18.5158322 29.4486385 31 35 C28.26980214 36.06528748 27.20701188 36.07998186 24.421875 35.00390625 C23.09929688 34.29041016 23.09929688 34.29041016 21.75 33.5625 C20.85796875 33.08941406 19.9659375 32.61632812 19.046875 32.12890625 C18.37140625 31.75636719 17.6959375 31.38382813 17 31 C17 30.34 17 29.68 17 29 C16.34 29 15.68 29 15 29 C14.67 28.34 14.34 27.68 14 27 C11.47266765 26.34444881 11.47266765 26.34444881 9 26 C8.67 24.68 8.34 23.36 8 22 C6.68 22.33 5.36 22.66 4 23 C4 23.66 4 24.32 4 25 C5.89757479 27.01896763 5.89757479 27.01896763 8 28.375 C11.00533283 30.81683293 11.79500935 33.38502806 13 37 C15.64 37.33 18.28 37.66 21 38 C21.20496094 38.77988281 21.40992187 39.55976562 21.62109375 40.36328125 C22.78735432 43.24468508 22.78735432 43.24468508 25.78515625 44.29296875 C26.86667969 44.58816406 27.94820312 44.88335937 29.0625 45.1875 C31.0554834 45.74439786 33.03918563 46.33869442 35 47 C35.33 47.66 35.66 48.32 36 49 C30.42670356 48.47953652 26.16144041 47.03125665 21.1875 44.5 C20.48826416 44.14542725 19.78902832 43.79085449 19.06860352 43.42553711 C9.56769589 38.40918946 1.7968406 31.07915762 -4 22 C-4 21.34 -4 20.68 -4 20 C-1 20 2 20 5 20 C5 19.34 5 18.68 5 18 C4.34 18 3.68 18 3 18 C2.8046875 16.01432292 2.609375 14.02864583 2.4140625 12.04296875 C2.07334609 9.70011858 2.07334609 9.70011858 0 7 C-0.07905064 4.66800612 -0.08798769 2.33167378 0 0 Z "
        fill="#0d9488" transform="translate(17,77)" />
    <path
        d="M0 0 C2.0839403 0.11443603 4.16716493 0.24195547 6.25 0.375 C7.41015625 0.44460937 8.5703125 0.51421875 9.765625 0.5859375 C12.70694334 0.96248308 14.49949011 1.4774123 17 3 C17 3.66 17 4.32 17 5 C17.67546875 5.08636719 18.3509375 5.17273438 19.046875 5.26171875 C26.42367067 6.42367067 26.42367067 6.42367067 29.625 9.625 C30.305625 10.800625 30.305625 10.800625 31 12 C28.4375 14.125 28.4375 14.125 25 16 C22.25593948 15.57783684 20.49750168 15.06192985 18 14 C17.20078125 13.6803125 16.4015625 13.360625 15.578125 13.03125 C13.86272446 12.34508978 12.15043644 11.65109527 10.44140625 10.94921875 C8.28595891 10.11118082 6.16629977 9.42118659 3.9375 8.8125 C1 8 1 8 0 7 C-0.04092937 4.66702567 -0.04241723 2.33294775 0 0 Z "
        fill="#0d9488" transform="translate(5,23)" />
    <path
        d="M0 0 C0.66 0.33 1.32 0.66 2 1 C0.125 5.875 0.125 5.875 -1 7 C-0.67 7.66 -0.34 8.32 0 9 C4.73184499 9 5.51792202 7.93227619 9 5 C9.66 5 10.32 5 11 5 C9.52278578 8.45201639 7.56205999 10.64961936 4.875 13.25 C4.15054688 13.95640625 3.42609375 14.6628125 2.6796875 15.390625 C2.12539062 15.92171875 1.57109375 16.4528125 1 17 C0.34 16.67 -0.32 16.34 -1 16 C-0.67 15.34 -0.34 14.68 0 14 C-1.32 13.34 -2.64 12.68 -4 12 C-4.99 12.99 -5.98 13.98 -7 15 C-7.66 14.01 -8.32 13.02 -9 12 C-9.33 11.67 -9.66 11.34 -10 11 C-10.33 11.66 -10.66 12.32 -11 13 C-14.49360475 14.79401325 -16.28574649 15.11665191 -20 14 C-18.96552734 13.48953125 -18.96552734 13.48953125 -17.91015625 12.96875 C-11.04614197 9.4284628 -5.53074049 5.38052285 0 0 Z "
        fill="#0d9488" transform="translate(91,98)" />
    <path
        d="M0 0 C4.48135001 3.05727656 6.63156792 6.97753933 7.7578125 12.19921875 C7.56264095 18.34712246 6.30705506 22.17112512 2.7578125 27.19921875 C-1.30670363 30.19921875 -1.30670363 30.19921875 -4.2421875 30.19921875 C-4.2421875 29.53921875 -4.2421875 28.87921875 -4.2421875 28.19921875 C-3.2728125 27.95171875 -2.3034375 27.70421875 -1.3046875 27.44921875 C1.81886417 26.58669203 1.81886417 26.58669203 2.5078125 24.51171875 C2.5903125 23.74859375 2.6728125 22.98546875 2.7578125 22.19921875 C3.1290625 21.12671875 3.5003125 20.05421875 3.8828125 18.94921875 C4.9643154 14.31420634 4.87836969 11.83085514 3.7578125 7.19921875 C1.1878611 4.02059465 -0.36403077 2.49193766 -4.2421875 1.19921875 C-4.2421875 0.53921875 -4.2421875 -0.12078125 -4.2421875 -0.80078125 C-6.16143537 -0.57143716 -8.0776281 -0.31643782 -9.9921875 -0.05078125 C-11.05953125 0.0884375 -12.126875 0.22765625 -13.2265625 0.37109375 C-16.6644195 1.31516847 -17.89534925 2.59866825 -20.2421875 5.19921875 C-20.9021875 5.19921875 -21.5621875 5.19921875 -22.2421875 5.19921875 C-22.2421875 5.85921875 -22.2421875 6.51921875 -22.2421875 7.19921875 C-23.2321875 7.69421875 -23.2321875 7.69421875 -24.2421875 8.19921875 C-24.89773869 10.7265511 -24.89773869 10.7265511 -25.2421875 13.19921875 C-25.5721875 13.19921875 -25.9021875 13.19921875 -26.2421875 13.19921875 C-26.81326115 9.93594075 -26.69367068 7.8879219 -24.859375 5.08984375 C-17.82887043 -3.24936946 -9.77413164 -5.46201474 0 0 Z "
        fill="#0d9488" transform="translate(69.2421875,6.80078125)" />
    <path
        d="M0 0 C0.66 0 1.32 0 2 0 C4.05931145 4.11862291 3.18489262 9.47359045 3.1875 14 C3.19974609 15.11890625 3.21199219 16.2378125 3.22460938 17.390625 C3.22750977 18.99164063 3.22750977 18.99164063 3.23046875 20.625 C3.23457764 21.60726562 3.23868652 22.58953125 3.24291992 23.6015625 C3 26 3 26 1 28 C-0.05941183 30.50055504 -0.97405778 33.03799689 -1.90234375 35.58984375 C-2.98923022 37.97635248 -4.03314916 39.30212021 -6 41 C-6.99 40.34 -7.98 39.68 -9 39 C-8.40251953 38.12601563 -8.40251953 38.12601563 -7.79296875 37.234375 C-0.04176913 25.23981792 0.44265432 13.8370462 0 0 Z "
        fill="#0d9488" transform="translate(101,57)" />
    <path
        d="M0 0 C2.39573747 3.59360621 2.39345273 4.75071047 2 9 C1.54302244 10.27897989 1.06100662 11.54912784 0.5625 12.8125 C-2.01528129 19.8649205 -1.7527758 27.57474909 -2 35 C-2.66 34.67 -3.32 34.34 -4 34 C-4.02718316 31.14576808 -4.04692705 28.29179985 -4.0625 25.4375 C-4.07087891 24.63763672 -4.07925781 23.83777344 -4.08789062 23.01367188 C-4.10731238 18.25534176 -3.95847758 13.68388103 -3 9 C-2.34 8.34 -1.68 7.68 -1 7 C-1.3185177 4.89179203 -1.3185177 4.89179203 -2 3 C-4.31 3.33 -6.62 3.66 -9 4 C-9.33 4.99 -9.66 5.98 -10 7 C-10.33 6.34 -10.66 5.68 -11 5 C-9.75 2.4375 -9.75 2.4375 -8 0 C-4.67212881 -1.1092904 -3.3006216 -1.01557588 0 0 Z "
        fill="#0d9488" transform="translate(19,41)" />
    <path
        d="M0 0 C1 1 1 1 1.0625 4.0625 C1.041875 5.031875 1.02125 6.00125 1 7 C0.34 7 -0.32 7 -1 7 C-1.33 5.35 -1.66 3.7 -2 2 C-10.86544406 3.36819275 -18.77327595 4.790528 -26.765625 9.109375 C-29.33840656 10.13488933 -30.44921899 9.95946809 -33 9 C-32.02248365 7.65009646 -31.01800576 6.31963709 -30 5 C-29.54625 4.401875 -29.0925 3.80375 -28.625 3.1875 C-28.08875 2.795625 -27.5525 2.40375 -27 2 C-25.32345271 2.27942455 -23.65740715 2.62331656 -22 3 C-19.65834501 2.73128549 -17.32115711 2.40961596 -15 2 C-15 1.34 -15 0.68 -15 0 C-4.21842289 -1.36078158 -4.21842289 -1.36078158 0 0 Z "
        fill="#0d9488" transform="translate(101,49)" />
    <path
        d="M0 0 C0.7734375 0.09667969 1.546875 0.19335938 2.34375 0.29296875 C4.5 0.8125 4.5 0.8125 7.5 2.8125 C3.54 2.8125 -0.42 2.8125 -4.5 2.8125 C-4.5 4.7925 -4.5 6.7725 -4.5 8.8125 C3.26426323 11.67252771 3.26426323 11.67252771 11.125 14.25 C17.01465685 16.19199496 22.99790243 18.55935365 26.5 23.8125 C23.11095565 22.7957867 19.9919333 21.60120474 16.8671875 19.9609375 C11.63190332 17.30832921 6.17905037 15.3211635 0.68359375 13.28125 C-0.08597656 12.98992188 -0.85554687 12.69859375 -1.6484375 12.3984375 C-2.34114746 12.1411084 -3.03385742 11.8837793 -3.74755859 11.61865234 C-5.5 10.8125 -5.5 10.8125 -7.5 8.8125 C-8.05682417 3.5783528 -8.05682417 3.5783528 -6.26171875 1.109375 C-3.94429676 -0.59657644 -2.81248926 -0.39843598 0 0 Z "
        fill="#0d9488" transform="translate(10.5,21.1875)" />
    <path
        d="M0 0 C6.48326542 7.87253658 8.35092359 19.03117069 8 29 C7.08276923 33.53013974 5.96759755 36.35493496 2 39 C2.5615032 36.00531624 3.24727476 33.17575079 4.125 30.25 C6.52889573 20.58019387 2.70285366 9.91249625 -1 1 C-0.67 0.67 -0.34 0.34 0 0 Z "
        fill="#0d9488" transform="translate(69,60)" />
    <path
        d="M0 0 C0.33 0 0.66 0 1 0 C1.0928125 1.670625 1.0928125 1.670625 1.1875 3.375 C2.04848898 10.09549731 4.85350562 15.95107354 9.75 20.625 C13.9469577 22.40063595 17.50396345 22.75505957 22 22 C24.32219658 20.55269907 24.32219658 20.55269907 26 19 C26.99 19.33 27.98 19.66 29 20 C25.11204337 23.64495934 21.39293226 25.99063727 16 26 C10.36780435 24.42882347 6.1422507 21.87429804 2.9375 16.9375 C0.58793876 12.71497891 -0.13325533 9.06136234 -0.0625 4.25 C-0.05347656 3.45078125 -0.04445312 2.6515625 -0.03515625 1.828125 C-0.02355469 1.22484375 -0.01195312 0.6215625 0 0 Z "
        fill="#0d9488" transform="translate(42,80)" />
    <path
        d="M0 0 C1.16499023 -0.04568115 1.16499023 -0.04568115 2.35351562 -0.09228516 C6.61026306 -0.0950445 8.20688422 0.11461852 11.64453125 2.87109375 C13.6438545 5.44383667 14.87986796 7.35023506 15.6875 10.5 C15.3125 12.8125 15.3125 12.8125 14.6875 14.5 C13.20023516 11.59307326 11.77972633 8.74412851 10.625 5.6875 C9.89547383 3.33484431 9.89547383 3.33484431 7.6875 2.5 C-0.68187933 1.96796122 -7.57904008 2.12539931 -15.3125 5.5 C-18.8125 5.6875 -18.8125 5.6875 -21.3125 5.5 C-15.87739363 0.06489363 -7.26212112 0.14799722 0 0 Z "
        fill="#0d9488" transform="translate(96.3125,38.5)" />
    <path
        d="M0 0 C1.5778125 0.495 1.5778125 0.495 3.1875 1 C6.38873357 1.83966782 8.7411008 2.19750904 12 2 C11.75 4.875 11.75 4.875 11 8 C8.45285085 9.86790938 7.19131 10 4 10 C3.9175 9.21625 3.835 8.4325 3.75 7.625 C3.27193661 4.85250896 3.27193661 4.85250896 0.9375 3.6875 C0.298125 3.460625 -0.34125 3.23375 -1 3 C-0.67 2.01 -0.34 1.02 0 0 Z "
        fill="#0d9488" transform="translate(41,39)" />
    <path
        d="M0 0 C1.32 0.33 2.64 0.66 4 1 C-5.24342176 7.84697908 -15.17951659 12.20265643 -26.8125 12.0625 C-28.27623047 12.04896484 -28.27623047 12.04896484 -29.76953125 12.03515625 C-30.87361328 12.01775391 -30.87361328 12.01775391 -32 12 C-32 11.67 -32 11.34 -32 11 C-28.7 11 -25.4 11 -22 11 C-22 10.34 -22 9.68 -22 9 C-20.824375 8.9175 -19.64875 8.835 -18.4375 8.75 C-15.23054741 8.3703784 -13.04973851 7.6437522 -10.3125 5.9375 C-7.0522545 4.03056395 -5.663622 3.55592461 -2 4 C-1.34 2.68 -0.68 1.36 0 0 Z "
        fill="#0d9488" transform="translate(86,115)" />
    <path
        d="M0 0 C0.66 0.66 1.32 1.32 2 2 C1.01 2.495 1.01 2.495 0 3 C-0.04254356 4.99954746 -0.04080783 7.00041636 0 9 C1.0595877 10.28322547 1.0595877 10.28322547 3.5 10.125 C5.9404123 10.28322547 5.9404123 10.28322547 7 9 C7.33374277 6.58416247 7.33374277 6.58416247 7 4 C5.60414215 2.18523997 5.60414215 2.18523997 4 1 C5.9375 0.4375 5.9375 0.4375 8 0 C9.66030882 1.66030882 9.28918251 3.59753597 9.375 5.875 C9.3515625 8.60546875 9.3515625 8.60546875 9 11 C6.55144548 13.38053912 5.25589323 13.96306196 1.875 14.0625 C-1.15377785 12.34619255 -1.84846018 10.21219002 -3 7 C-2.8125 3.6875 -2.8125 3.6875 -2 1 C-1.34 0.67 -0.68 0.34 0 0 Z "
        fill="#0d9488" transform="translate(56,15)" />
    <path
        d="M0 0 C0.66 0.33 1.32 0.66 2 1 C1.05560016 4.17661766 0.40284183 5.70603434 -2.3125 7.6875 C-5 9 -5 9 -7.75 10.0625 C-10.16232993 10.77997664 -10.16232993 10.77997664 -11 13 C-14.49360475 14.79401325 -16.28574649 15.11665191 -20 14 C-18.96552734 13.48953125 -18.96552734 13.48953125 -17.91015625 12.96875 C-11.04614197 9.4284628 -5.53074049 5.38052285 0 0 Z "
        fill="#0d9488" transform="translate(91,98)" />
    <path
        d="M0 0 C0.68835937 0.63228516 0.68835937 0.63228516 1.390625 1.27734375 C2.00421875 1.82519531 2.6178125 2.37304688 3.25 2.9375 C3.85328125 3.48277344 4.4565625 4.02804688 5.078125 4.58984375 C7.16941645 6.1243076 8.41297811 6.80484748 11 7 C13.09941095 6.00324448 13.09941095 6.00324448 15.0625 4.5 C17.09765625 3.03125 17.09765625 3.03125 19 2 C19.99 2.33 20.98 2.66 22 3 C19.30442292 6.32983051 15.95059687 7.54451694 12 9 C10.68 9 9.36 9 8 9 C7.67 9.66 7.34 10.32 7 11 C6.401875 10.05125 5.80375 9.1025 5.1875 8.125 C3.18437474 4.86035803 3.18437474 4.86035803 0 3 C0 2.01 0 1.02 0 0 Z "
        fill="#0d9488" transform="translate(53,42)" />
    <path
        d="M0 0 C0.94875 0.845625 1.8975 1.69125 2.875 2.5625 C8.70278497 7.54928348 14.73925259 12.36442621 22 15 C19.26980214 16.06528748 18.20701188 16.07998186 15.421875 15.00390625 C14.54015625 14.52824219 13.6584375 14.05257812 12.75 13.5625 C11.41195312 12.85287109 11.41195312 12.85287109 10.046875 12.12890625 C9.37140625 11.75636719 8.6959375 11.38382813 8 11 C8 10.34 8 9.68 8 9 C7.34 9 6.68 9 6 9 C5.67 8.34 5.34 7.68 5 7 C4.01 7 3.02 7 2 7 C1.34 4.69 0.68 2.38 0 0 Z "
        fill="#0d9488" transform="translate(26,97)" />
    <path
        d="M0 0 C0.99 0 1.98 0 3 0 C2.35812082 5.13503344 1.31727753 9.9943454 0 15 C-0.66 15 -1.32 15 -2 15 C-2.22577402 9.5814234 -1.46670113 5.22512279 0 0 Z "
        fill="#0d9488" transform="translate(7,49)" />
    <path
        d="M0 0 C4.875 0.875 4.875 0.875 6 2 C6.04080783 3.99958364 6.04254356 6.00045254 6 8 C5.34 8 4.68 8 4 8 C3.67 6.35 3.34 4.7 3 3 C-2.94 3.495 -2.94 3.495 -9 4 C-7 2 -7 2 -3.375 1.875 C-1.704375 1.936875 -1.704375 1.936875 0 2 C0 1.34 0 0.68 0 0 Z "
        fill="#0d9488" transform="translate(96,48)" />
    <path
        d="M0 0 C0.99 0.33 1.98 0.66 3 1 C-1.16910141 4.90853257 -4.49114915 6.02262324 -10 7 C-10.99 6.67 -11.98 6.34 -13 6 C-13 5.34 -13 4.68 -13 4 C-12.39671875 3.96261719 -11.7934375 3.92523438 -11.171875 3.88671875 C-6.45800343 3.4989648 -3.69549559 3.1269578 0 0 Z "
        fill="#0d9488" transform="translate(68,99)" />
    <path
        d="M0 0 C0.66 0 1.32 0 2 0 C5.22265625 5.2734375 5.22265625 5.2734375 6 7 C5.67 7.66 5.34 8.32 5 9 C4.16094435 7.87926138 3.32892169 6.75325453 2.5 5.625 C2.0359375 4.99851562 1.571875 4.37203125 1.09375 3.7265625 C0 2 0 2 0 0 Z "
        fill="#0d9488" transform="translate(13,97)" />
    <path
        d="M0 0 C0.99 0.495 0.99 0.495 2 1 C1.67 1.66 1.34 2.32 1 3 C0.67 2.01 0.34 1.02 0 0 Z M-3 1 C-2.67 1.66 -2.34 2.32 -2 3 C-1.01 3 -0.02 3 1 3 C0.67 3.99 0.34 4.98 0 6 C-0.99 6 -1.98 6 -3 6 C-3 4.35 -3 2.7 -3 1 Z "
        fill="#0d9488" transform="translate(45,17)" />
</svg>